<svg xmlns="http://www.w3.org/2000/svg" version="1.1" xmlns:xlink="http://www.w3.org/1999/xlink" xmlns:svgjs="http://svgjs.dev/svgjs" width="2000" height="1500" viewBox="0 0 2000 1500"><rect width="2000" height="1500" fill="#001f3f"></rect><g transform="matrix(0.75,0,0,0.75,249.090909090909,282.7536437246963)"><svg viewBox="0 0 396 247" data-background-color="#001f3f" preserveAspectRatio="xMidYMid meet" height="1247" width="2000" xmlns="http://www.w3.org/2000/svg" xmlns:xlink="http://www.w3.org/1999/xlink"><g id="tight-bounds" transform="matrix(1,0,0,1,0.2400000000000091,-0.09999999999999432)"><svg viewBox="0 0 395.52 247.2" height="247.2" width="395.52"><g><svg></svg></g><g><svg viewBox="0 0 395.52 247.2" height="247.2" width="395.52"><g><path xmlns="http://www.w3.org/2000/svg" d="M55.039 247.2l38.52-66.719 2.438 0-37.235 64.492h277.996l-37.235-64.492 2.438 0 38.52 66.719zM197.76 0l38.52 66.719-2.437 0-36.083-62.497-36.083 62.497-2.437 0z" fill="#ffffff" fill-rule="nonzero" stroke="none" stroke-width="1" stroke-linecap="butt" stroke-linejoin="miter" stroke-miterlimit="10" stroke-dasharray="" stroke-dashoffset="0" font-family="none" font-weight="none" font-size="none" text-anchor="none" style="mix-blend-mode: normal" data-fill-palette-color="tertiary"></path></g><g transform="matrix(1,0,0,1,0,82.97090034367801)"><svg viewBox="0 0 395.52 81.25819931264397" height="81.25819931264397" width="395.52"><g><svg viewBox="0 0 395.52 81.25819931264397" height="81.25819931264397" width="395.52"><g><svg viewBox="0 0 395.52 81.25819931264397" height="81.25819931264397" width="395.52"><g transform="matrix(1,0,0,1,0,45.5022116965449)"><svg viewBox="0 0 395.52 35.75598761609907" height="35.75598761609907" width="395.52"><g id="textblocktransform"><svg viewBox="0 0 395.52 35.75598761609907" height="35.75598761609907" width="395.52" id="textblock"><g><svg viewBox="0 0 395.52 35.75598761609907" height="35.75598761609907" width="395.52"><g transform="matrix(1,0,0,1,0,0)"><svg width="395.52" viewBox="-1 -35.75 403.7200012207031 36.5" height="35.75598761609907" data-palette-color="#ffffff"><path d="M16.5 0.5L1.5-33.5-1-34.25-1-35 5-35Q7.6-35 9.25-33.83 10.9-32.65 11.75-30.75L11.75-30.75 20.6-10.6 28.75-32.75 25-34.25 25-35 34.25-35 34.25-34.25 30.25-32.75 18 0.5 16.5 0.5ZM52.5-15L32.5-15 32.5-17.25 52.5-17.25 52.5-15ZM69.25 0.75Q65.95 0.75 63.52-0.45 61.1-1.65 59.8-3.75 58.5-5.85 58.5-8.5L58.5-8.5 58.5-23.75 55-23.75 55-25 58.5-25 58.5-27.5Q58.5-32 63-32L63-32 66.5-32 66.5-25 73.5-25 73.5-23.75 66.5-23.75 66.5-8.5Q66.5-3.9 67.45-2.2 68.4-0.5 70.25-0.5L70.25-0.5Q72.05-0.5 73.4-2.25 74.75-4 74.75-7L74.75-7 76-7Q76-3.3 74.15-1.28 72.3 0.75 69.25 0.75L69.25 0.75ZM92.24 0.75Q85.84 0.75 82.29-2.78 78.74-6.3 78.74-12.5L78.74-12.5Q78.74-16.55 80.29-19.55 81.84-22.55 84.62-24.15 87.39-25.75 90.99-25.75L90.99-25.75Q94.59-25.75 97.32-24.4 100.04-23.05 101.52-20.78 102.99-18.5 102.99-15.75L102.99-15.75Q102.99-14.5 102.74-13.6L102.74-13.6 102.49-12.75Q100.34-12.3 97.84-12L97.84-12Q92.59-11.25 87.24-11.25L87.24-11.25Q87.24-5.45 88.84-2.98 90.44-0.5 93.24-0.5L93.24-0.5Q95.19-0.5 96.87-1.43 98.54-2.35 99.52-3.88 100.49-5.4 100.49-7L100.49-7 101.74-7Q101.74-5 100.54-3.2 99.34-1.4 97.19-0.33 95.04 0.75 92.24 0.75L92.24 0.75ZM87.24-12.5Q90.44-12.5 92.44-12.75L92.44-12.75Q93.29-12.8 94.24-13L94.24-13Q94.29-13.25 94.49-14.1L94.49-14.1Q94.74-15.35 94.74-16.75L94.74-16.75Q94.74-20.9 93.64-22.83 92.54-24.75 90.99-24.75L90.99-24.75Q87.24-24.75 87.24-12.5L87.24-12.5ZM120.24 0.75Q113.84 0.75 110.29-2.78 106.74-6.3 106.74-12.5L106.74-12.5Q106.74-18.7 110.29-22.23 113.84-25.75 120.24-25.75L120.24-25.75Q124.84-25.75 127.17-24.15 129.49-22.55 129.49-20.25L129.49-20.25Q129.49-18.55 128.47-17.53 127.44-16.5 125.74-16.5L125.74-16.5Q125.04-16.5 124.34-16.6L124.34-16.6 123.74-16.75 123.74-24.25 123.04-24.5Q122.29-24.75 121.24-24.75L121.24-24.75Q118.39-24.75 116.82-22.05 115.24-19.35 115.24-12.5L115.24-12.5Q115.24-5.85 116.82-3.18 118.39-0.5 121.24-0.5L121.24-0.5Q123.19-0.5 124.87-1.43 126.54-2.35 127.52-3.88 128.49-5.4 128.49-7L128.49-7 129.74-7Q129.74-5 128.54-3.2 127.34-1.4 125.19-0.33 123.04 0.75 120.24 0.75L120.24 0.75ZM133.24 0L133.24-0.75 136.24-1.5 136.24-33.5 133.24-34.25 133.24-35 139.74-35Q144.24-35 144.24-30.5L144.24-30.5 144.24-22.5Q144.99-23.5 145.79-24.1L145.79-24.1Q147.94-25.75 150.74-25.75L150.74-25.75Q153.54-25.75 155.76-24.58 157.99-23.4 159.24-21.5 160.49-19.6 160.49-17.5L160.49-17.5 160.49-1.5 163.49-0.75 163.49 0 156.99 0Q152.49 0 152.49-4.5L152.49-4.5 152.49-17.5Q152.49-20.65 151.36-22.33 150.24-24 148.74-24L148.74-24Q146.84-24 145.34-22L145.34-22Q144.69-21.15 144.24-20L144.24-20 144.24-1.5 147.24-0.75 147.24 0 133.24 0ZM179.24 0.75Q175.69 0.75 172.59-0.85L172.59-0.85Q171.19-1.55 170.24-2.5L170.24-2.5Q169.54-1.35 168.49-0.45L168.49-0.45Q167.59 0.2 167.49 0.25L167.49 0.25 166.24 0.25 166.24-9.25 168.24-9.25Q168.99-6.8 170.34-4.85L170.34-4.85Q173.39-0.5 178.24-0.5L178.24-0.5Q181.09-0.5 182.79-2.2 184.49-3.9 184.49-6.75L184.49-6.75Q184.49-8.4 183.51-9.7 182.54-11 181.09-12 179.64-13 177.04-14.5L177.04-14.5Q173.74-16.35 171.69-17.85 169.64-19.35 168.19-21.63 166.74-23.9 166.74-27L166.74-27Q166.74-29.45 168.11-31.43 169.49-33.4 172.24-34.58 174.99-35.75 178.99-35.75L178.99-35.75Q181.89-35.75 184.79-34.1L184.79-34.1Q185.89-33.5 186.99-32.5L186.99-32.5Q187.84-33.8 188.74-34.55L188.74-34.55Q189.64-35.2 189.74-35.25L189.74-35.25 190.99-35.25 190.99-25.75 188.99-25.75Q188.34-28.15 187.04-30.1L187.04-30.1Q185.84-32 184.06-33.25 182.29-34.5 179.99-34.5L179.99-34.5Q178.04-34.5 176.64-32.95 175.24-31.4 175.24-29L175.24-29Q175.24-27.15 176.31-25.68 177.39-24.2 178.96-23.1 180.54-22 183.24-20.45L183.24-20.45Q186.39-18.65 188.34-17.25 190.29-15.85 191.64-13.78 192.99-11.7 192.99-9L192.99-9Q192.99-6.3 191.44-4.08 189.89-1.85 186.79-0.55 183.69 0.75 179.24 0.75L179.24 0.75ZM209.48 0.75Q203.28 0.75 199.76-2.78 196.23-6.3 196.23-12.5L196.23-12.5Q196.23-18.7 199.76-22.23 203.28-25.75 209.48-25.75L209.48-25.75Q215.68-25.75 219.21-22.23 222.73-18.7 222.73-12.5L222.73-12.5Q222.73-6.3 219.21-2.78 215.68 0.75 209.48 0.75L209.48 0.75ZM209.48-0.25Q211.48-0.25 212.86-3.05 214.23-5.85 214.23-12.5L214.23-12.5Q214.23-19.15 212.86-21.95 211.48-24.75 209.48-24.75L209.48-24.75Q207.48-24.75 206.11-21.95 204.73-19.15 204.73-12.5L204.73-12.5Q204.73-5.85 206.11-3.05 207.48-0.25 209.48-0.25L209.48-0.25ZM226.73 0L226.73-0.75 229.73-1.5 229.73-33.5 226.73-34.25 226.73-35 233.23-35Q237.73-35 237.73-30.5L237.73-30.5 237.73-1.5 240.73-0.75 240.73 0 226.73 0ZM255.73 0.75Q252.93 0.75 250.7-0.43 248.48-1.6 247.23-3.5 245.98-5.4 245.98-7.5L245.98-7.5 245.98-23.5 242.98-24.25 242.98-25 249.48-25Q253.98-25 253.98-20.5L253.98-20.5 253.98-7.5Q253.98-4.35 255.1-2.68 256.23-1 257.73-1L257.73-1Q259.58-1 261.08-3L261.08-3Q261.63-3.75 262.23-5L262.23-5 262.23-23.5 259.23-24.25 259.23-25 273.23-25 273.23-24.25 270.23-23.5 270.23 0.25 269.73 0.25Q266.08 0.25 264.18-1.75L264.18-1.75Q263.33-2.65 262.98-3.75L262.98-3.75Q262.28-2.5 261.33-1.5L261.33-1.5Q259.08 0.75 255.73 0.75L255.73 0.75ZM289.23 0.75Q285.93 0.75 283.5-0.45 281.08-1.65 279.78-3.75 278.48-5.85 278.48-8.5L278.48-8.5 278.48-23.75 274.98-23.75 274.98-25 278.48-25 278.48-27.5Q278.48-32 282.98-32L282.98-32 286.48-32 286.48-25 293.48-25 293.48-23.75 286.48-23.75 286.48-8.5Q286.48-3.9 287.43-2.2 288.38-0.5 290.23-0.5L290.23-0.5Q292.03-0.5 293.38-2.25 294.73-4 294.73-7L294.73-7 295.98-7Q295.98-3.3 294.13-1.28 292.28 0.75 289.23 0.75L289.23 0.75ZM298.72 0L298.72-0.75 301.72-1.5 301.72-23.5 298.72-24.25 298.72-25 305.22-25Q309.72-25 309.72-20.5L309.72-20.5 309.72-1.5 312.72-0.75 312.72 0 298.72 0ZM305.22-28Q303.72-28 302.72-29 301.72-30 301.72-31.5L301.72-31.5Q301.72-33 302.72-34 303.72-35 305.22-35L305.22-35Q306.72-35 307.72-34 308.72-33 308.72-31.5L308.72-31.5Q308.72-30 307.72-29 306.72-28 305.22-28L305.22-28ZM328.97 0.75Q322.77 0.75 319.25-2.78 315.72-6.3 315.72-12.5L315.72-12.5Q315.72-18.7 319.25-22.23 322.77-25.75 328.97-25.75L328.97-25.75Q335.17-25.75 338.7-22.23 342.22-18.7 342.22-12.5L342.22-12.5Q342.22-6.3 338.7-2.78 335.17 0.75 328.97 0.75L328.97 0.75ZM328.97-0.25Q330.97-0.25 332.35-3.05 333.72-5.85 333.72-12.5L333.72-12.5Q333.72-19.15 332.35-21.95 330.97-24.75 328.97-24.75L328.97-24.75Q326.97-24.75 325.6-21.95 324.22-19.15 324.22-12.5L324.22-12.5Q324.22-5.85 325.6-3.05 326.97-0.25 328.97-0.25L328.97-0.25ZM346.22 0L346.22-0.75 349.22-1.5 349.22-23.5 346.22-24.25 346.22-25 350.72-25Q353.67-25 355.37-23.1L355.37-23.1Q356.02-22.35 356.47-21.25L356.47-21.25Q357.17-22.55 358.12-23.5L358.12-23.5Q360.37-25.75 363.72-25.75L363.72-25.75Q366.52-25.75 368.74-24.58 370.97-23.4 372.22-21.5 373.47-19.6 373.47-17.5L373.47-17.5 373.47-1.5 376.47-0.75 376.47 0 369.97 0Q365.47 0 365.47-4.5L365.47-4.5 365.47-17.5Q365.47-20.65 364.34-22.33 363.22-24 361.72-24L361.72-24Q359.82-24 358.32-22L358.32-22Q357.67-21.15 357.22-20L357.22-20 357.22-1.5 360.22-0.75 360.22 0 346.22 0ZM391.22 0.75Q388.12 0.75 385.67-0.6L385.67-0.6Q384.47-1.25 383.72-2L383.72-2Q382.92-0.9 381.97-0.3L381.97-0.3Q381.52 0 380.97 0.25L380.97 0.25 379.72 0.25 379.72-8.25 381.72-8.25Q382.37-6.15 383.62-4.35L383.62-4.35Q386.27-0.5 390.22-0.5L390.22-0.5Q392.32-0.5 393.39-1.53 394.47-2.55 394.47-4.5L394.47-4.5Q394.47-6.15 392.99-7.28 391.52-8.4 388.37-10.05L388.37-10.05Q385.67-11.4 383.99-12.48 382.32-13.55 381.14-15.18 379.97-16.8 379.97-19L379.97-19Q379.97-22 382.54-23.88 385.12-25.75 390.47-25.75L390.47-25.75Q393.12-25.75 395.37-24.35L395.37-24.35Q396.47-23.7 397.27-23L397.27-23Q397.92-23.9 399.02-24.7L399.02-24.7Q399.87-25.2 400.02-25.25L400.02-25.25 401.27-25.25 401.27-16.75 399.27-16.75Q398.52-18.9 397.42-20.6L397.42-20.6Q394.92-24.5 391.47-24.5L391.47-24.5Q390.12-24.5 389.17-23.5 388.22-22.5 388.22-21L388.22-21Q388.22-19.1 389.82-17.82 391.42-16.55 394.67-14.9L394.67-14.9Q397.32-13.55 398.89-12.53 400.47-11.5 401.59-10 402.72-8.5 402.72-6.5L402.72-6.5Q402.72 0.75 391.22 0.75L391.22 0.75Z" opacity="1" transform="matrix(1,0,0,1,0,0)" fill="#ffffff" class="undefined-text-0" data-fill-palette-color="primary" id="text-0"></path></svg></g></svg></g></svg></g></svg></g><g transform="matrix(1,0,0,1,179.22945941795663,0)"><svg viewBox="0 0 37.061081164086694 37.061081164086694" height="37.061081164086694" width="37.061081164086694"><g><svg xmlns="http://www.w3.org/2000/svg" data-name="Layer 1" viewBox="0 0 128 128" x="0" y="0" height="37.061081164086694" width="37.061081164086694" class="icon-icon-0" data-fill-palette-color="accent" id="icon-0"><path d="M18.136 82.998c-4.542 11.393-4.679 20.969 0.609 26.257 2.711 2.711 6.544 3.998 11.174 3.998a41.839 41.839 0 0 0 15.084-3.387C49.847 121.133 56.521 128 64 128s14.153-6.867 18.997-18.135a41.841 41.841 0 0 0 15.084 3.387c4.628 0 8.464-1.287 11.174-3.997 5.288-5.288 5.151-14.864 0.609-26.257C121.132 78.154 128 71.479 128 64s-6.868-14.154-18.136-18.998c4.542-11.393 4.679-20.969-0.609-26.257C103.966 13.457 94.39 13.593 82.998 18.135 78.154 6.868 71.479 0 64 0 56.521 0 49.846 6.868 45.002 18.136c-11.392-4.542-20.968-4.679-26.257 0.609-5.288 5.288-5.151 14.864-0.609 26.257C6.868 49.846 0 56.521 0 64S6.868 78.154 18.136 82.998Zm3.437 23.429c-4.121-4.121-3.695-12.19 0.274-21.963a100.747 100.747 0 0 0 17.21 4.479A100.75 100.75 0 0 0 43.535 106.153C33.763 110.121 25.696 110.546 21.573 106.427Zm15.493-38.063Q35.315 66.18 33.71 64q1.604-2.179 3.356-4.364C37.027 61.078 37 62.53 37 64S37.027 66.922 37.066 68.364Zm-5.816-7.814a98.957 98.957 0 0 1-7.776-13.336A98.959 98.959 0 0 1 38.402 43.282q-0.656 4.687-1.012 9.696Q34.103 56.764 31.25 60.55ZM37.39 75.022q0.352 5.001 1.012 9.696a98.959 98.959 0 0 1-14.928-3.932 98.957 98.957 0 0 1 7.776-13.336Q34.1 71.228 37.39 75.022ZM47.736 47.736q3.382-3.382 6.856-6.436Q59.203 41.007 64 41q4.789 0 9.408 0.3 3.463 3.051 6.856 6.436 3.384 3.384 6.437 6.861Q86.993 59.206 87 64q0 4.786-0.299 9.403-3.052 3.465-6.437 6.861-3.384 3.384-6.861 6.437Q68.794 86.993 64 87q-4.786 0-9.403-0.299-3.465-3.052-6.861-6.437-3.384-3.384-6.437-6.861Q41.007 68.794 41 64q0-4.786 0.299-9.403Q44.352 51.131 47.736 47.736Zm-5.867 0.305q0.306-2.783 0.713-5.459 2.675-0.406 5.459-0.713c-1.048 0.992-2.093 1.999-3.133 3.039S42.862 46.993 41.869 48.041ZM59.625 37.067q2.189-1.756 4.375-3.361 2.184 1.608 4.375 3.361C66.929 37.027 65.474 37 64 37S61.071 37.027 59.625 37.067ZM79.959 41.869q2.783 0.306 5.459 0.713 0.406 2.675 0.713 5.459c-0.992-1.048-2-2.093-3.039-3.133S81.007 42.862 79.959 41.869Zm6.172 38.09q-0.306 2.783-0.713 5.459-2.672 0.406-5.453 0.712 1.569-1.486 3.127-3.038C84.131 82.052 85.138 81.007 86.131 79.959ZM68.364 90.934q-2.184 1.752-4.364 3.357-2.179-1.604-4.365-3.357C61.078 90.973 62.53 91 64 91S66.922 90.973 68.364 90.934ZM48.035 86.13q-2.78-0.306-5.453-0.712-0.406-2.675-0.713-5.459c0.992 1.048 2 2.093 3.039 3.133Q46.465 84.648 48.035 86.13Zm-4.753 3.468q4.685 0.655 9.691 1.012 3.786 3.288 7.573 6.143a98.939 98.939 0 0 1-13.332 7.773A98.957 98.957 0 0 1 43.282 89.598ZM64 124c-5.827 0-11.23-6.004-15.334-15.718a100.87 100.87 0 0 0 15.334-9.011 100.857 100.857 0 0 0 15.335 9.01C75.231 117.996 69.827 124 64 124Zm16.786-19.473A98.95 98.95 0 0 1 67.454 96.753q3.778-2.851 7.574-6.143 4.998-0.352 9.69-1.012A98.956 98.956 0 0 1 80.786 104.527Zm25.641 1.9c-4.121 4.122-12.19 3.696-21.963-0.273a100.752 100.752 0 0 0 4.479-17.211 100.747 100.747 0 0 0 17.21-4.479C110.122 94.237 110.547 102.306 106.427 106.427ZM90.934 59.636Q92.685 61.82 94.29 64q-1.604 2.179-3.356 4.364C90.973 66.922 91 65.47 91 64S90.973 61.078 90.934 59.636ZM90.61 52.978q-0.352-5.001-1.012-9.696a98.959 98.959 0 0 1 14.928 3.932 98.957 98.957 0 0 1-7.776 13.336Q93.9 56.772 90.61 52.978Zm0 22.044q3.287-3.785 6.14-7.572a98.957 98.957 0 0 1 7.776 13.336A98.959 98.959 0 0 1 89.598 84.718Q90.254 80.031 90.61 75.022ZM124 64c0 5.828-6.006 11.232-15.723 15.336A100.743 100.743 0 0 0 99.274 64 100.743 100.743 0 0 0 108.277 48.664C117.994 52.768 124 58.172 124 64ZM98.044 18.67c3.534 0 6.41 0.932 8.383 2.903 4.121 4.121 3.695 12.19-0.273 21.963a100.747 100.747 0 0 0-17.211-4.479 100.75 100.75 0 0 0-4.479-17.211A37.466 37.466 0 0 1 98.044 18.67ZM84.718 38.402q-4.687-0.656-9.696-1.012-3.784-3.286-7.569-6.138a99.022 99.022 0 0 1 13.333-7.779A98.949 98.949 0 0 1 84.718 38.402ZM64 4c5.828 0 11.232 6.006 15.336 15.722a100.746 100.746 0 0 0-15.337 9.004A100.755 100.755 0 0 0 48.664 19.723C52.768 10.006 58.172 4 64 4ZM47.214 23.474a99.029 99.029 0 0 1 13.333 7.778q-3.777 2.85-7.569 6.138-5.001 0.352-9.696 1.012A98.954 98.954 0 0 1 47.214 23.474ZM21.573 21.573c1.973-1.973 4.848-2.903 8.383-2.903a37.465 37.465 0 0 1 13.58 3.176 100.749 100.749 0 0 0-4.479 17.211A100.747 100.747 0 0 0 21.846 43.536C17.878 33.763 17.453 25.694 21.573 21.573ZM19.723 48.664A100.743 100.743 0 0 0 28.726 64 100.743 100.743 0 0 0 19.723 79.336C10.006 75.232 4 69.828 4 64S10.006 52.768 19.723 48.664Z" fill="#81ffd9" data-fill-palette-color="accent"></path><path d="M64 81A17 17 0 1 0 47 64 17.019 17.019 0 0 0 64 81Zm0-30A13 13 0 1 1 51 64 13.015 13.015 0 0 1 64 51Z" fill="#81ffd9" data-fill-palette-color="accent"></path><path d="M64 72a8 8 0 1 0-8-8A8.009 8.009 0 0 0 64 72Zm0-12a4 4 0 1 1-4 4A4.004 4.004 0 0 1 64 60Z" fill="#81ffd9" data-fill-palette-color="accent"></path></svg></g></svg></g><g></g></svg></g></svg></g></svg></g></svg></g><defs></defs></svg><rect width="395.52" height="247.2" fill="none" stroke="none" visibility="hidden"></rect></g></svg></g></svg>